<?xml version="1.0" encoding="UTF-8"?>
<svg width="28" height="28" viewBox="0 0 24 24" aria-hidden="true" xmlns="http://www.w3.org/2000/svg">
  <title>Knight</title>
  <path d="M6 19h12v2H6v-2zm11-8c0 2.5-1.2 4.1-3 5v2H10v-2c-.8 0-1.5-.2-2-.6V12c0-.6.4-1 1-1s1 .4 1 1v1h3c1.7 0 3-1.3 3-3 0-2.1-1.2-3.7-3.1-4.7-.5-.2-.9-.3-1.4-.3-1 0-2 .5-2.6 1.4L6 9l1.5.8c.3.1.5.5.5.8V12c-1.2-.6-2-1.9-2-3.3 0-.6.2-1.2.5-1.7l2.4-3.4C9.9 2.6 11.4 2 12.9 2c.7 0 1.4.1 2 .4C17.7 3.8 19 6 19 9z" fill="currentColor"/>
  <circle cx="13.5" cy="7.5" r="0.8" fill="currentColor"/>
</svg>
